<svg xmlns="http://www.w3.org/2000/svg" width="24.27" height="15.45" viewBox="0 0 24.27 15.45"><defs><style>.a{fill:none;stroke:#262626;stroke-linejoin:round;}.b{fill:#262626;}</style></defs><title>toolbar_material_metal</title><path class="a" d="M5.41,15a1,1,0,0,1-.67-.25L.83,11.19a1,1,0,0,1-.32-.87L1.21,5A1,1,0,0,1,2,4.16L17.84.53a.83.83,0,0,1,.22,0,1,1,0,0,1,.56.17L22.3,3.14a1.06,1.06,0,0,1,.42.63l1,4.87a1,1,0,0,1-.7,1.17L5.69,14.91A1,1,0,0,1,5.41,15Z"/><path class="b" d="M5.46,14.72,5.8,8.49a1.11,1.11,0,0,1,.86-1L21.82,4.09l1.23,5.62Z"/><path class="b" d="M1.53,10.37l.62-4.74L5,8a.47.47,0,0,1,.16.37l-.27,5Z"/><polygon class="b" points="13.38 2.5 20.22 2.48 19.18 1.89 15.79 1.91 13.38 2.5"/><polygon class="b" points="5.94 4.28 19.79 4.25 8.66 6.66 4.5 6.66 2.43 5.11 5.94 4.28"/></svg>