<svg xmlns="http://www.w3.org/2000/svg" width="24" height="24" viewBox="0 0 24 24"><defs><style>.a{fill:#262626;}</style></defs><title>toolbar_material_dielectric</title><path class="a" d="M18.78,2.1A12,12,0,1,0,21.9,18.78,12,12,0,0,0,18.78,2.1ZM2.65,11.18c-.82-.56-.32-2.72,1.12-4.82S7.05,3,7.87,3.57,8.18,6.3,6.74,8.4,3.47,11.74,2.65,11.18ZM8.91,9.89c-.39.57-1,.83-1.37.58s-.35-.93,0-1.5,1-.83,1.38-.58S9.31,9.31,8.91,9.89Zm11.45,8.32c-.39.57-1,.83-1.38.58s-.34-.92.05-1.5,1-.83,1.38-.58S20.76,17.63,20.36,18.21Z"/></svg>