<svg xmlns="http://www.w3.org/2000/svg" width="21.2" height="13.54" viewBox="0 0 21.2 13.54"><defs><style>.a{fill:none;stroke:#262626;stroke-linejoin:round;}.b{fill:#262626;}</style></defs><title>toolbar_material_metal</title><path class="a" d="M4.79,13a1,1,0,0,1-.67-.26L.83,9.83A1,1,0,0,1,.51,9L1.1,4.49a1,1,0,0,1,.77-.84L15.51.53a.91.91,0,0,1,.23,0,1,1,0,0,1,.55.17L19.4,2.76a1,1,0,0,1,.42.62l.86,4.07A1,1,0,0,1,20,8.62L5.07,13A.9.9,0,0,1,4.79,13Z"/><path class="b" d="M4.81,12.86,5.1,7.43a1,1,0,0,1,.75-.89L19,3.61,20.1,8.5Z"/><path class="b" d="M1.39,9.07,1.93,5,4.44,7a.43.43,0,0,1,.14.32l-.23,4.36Z"/><polygon class="b" points="11.69 2.23 17.64 2.21 16.73 1.7 13.78 1.72 11.69 2.23"/><polygon class="b" points="5.22 3.77 17.26 3.75 7.59 5.84 3.97 5.84 2.17 4.5 5.22 3.77"/></svg>