<svg xmlns="http://www.w3.org/2000/svg" width="20" height="20" viewBox="0 0 20 20"><defs><style>.a{fill:#262626;}</style></defs><title>toolbar_material_dielectric</title><path class="a" d="M15.65,1.75a10,10,0,1,0,2.6,13.9A10,10,0,0,0,15.65,1.75ZM2.21,9.32c-.68-.47-.27-2.27.93-4S5.87,2.51,6.56,3s.26,2.27-.94,4S2.89,9.79,2.21,9.32ZM7.43,8.24c-.33.48-.84.69-1.15.48S6,8,6.32,7.48s.84-.7,1.15-.49S7.76,7.76,7.43,8.24ZM17,15.17c-.33.48-.84.7-1.15.49s-.29-.77,0-1.25.84-.69,1.15-.48S17.3,14.7,17,15.17Z"/></svg>